<svg xmlns="http://www.w3.org/2000/svg" viewBox="0 0 900 640" width="900" height="640"><defs><linearGradient id="bg" x1="0" y1="0" x2="0.3" y2="1"><stop offset="0" stop-color="#fff4ef"/><stop offset="1" stop-color="#ffe7dd"/></linearGradient><radialGradient id="warm" cx="52%" cy="26%" r="62%"><stop offset="0" stop-color="#ffffff" stop-opacity=".85"/><stop offset="1" stop-color="#ffffff" stop-opacity="0"/></radialGradient></defs><rect width="900" height="640" fill="url(#bg)"/><rect width="900" height="640" fill="url(#warm)"/><g transform="translate(300 600) scale(0.9)"><path d="M-52 0c0-96 22-146 52-146s52 50 52 146z" fill="#fc393a"/><path d="M-52 0c0-96 22-146 52-146v146z" fill="#000" opacity=".07"/><ellipse cx="0" cy="-176" rx="34" ry="40" fill="#c98f66"/><path d="M-34 -184c0-30 14-46 34-46s34 16 34 46c0-16-14-24-34-24s-34 8-34 24z" fill="#241a16"/><path d="M-58 -110c-10 34-12 62-8 84l16-4c-3-22-1-46 6-70z" fill="#fc393a"/><path d="M58 -110c10 34 12 62 8 84l-16-4c3-22 1-46-6-70z" fill="#fc393a"/></g><path d="M520 304A26 26 0 0 1 520 356" fill="none" stroke="#fc393a" stroke-width="7" stroke-linecap="round" opacity="0.85"/><path d="M520 282A48 48 0 0 1 520 378" fill="none" stroke="#fc393a" stroke-width="7" stroke-linecap="round" opacity="0.63"/><path d="M520 260A70 70 0 0 1 520 400" fill="none" stroke="#fc393a" stroke-width="7" stroke-linecap="round" opacity="0.41"/><path d="M520 238A92 92 0 0 1 520 422" fill="none" stroke="#fc393a" stroke-width="7" stroke-linecap="round" opacity="0.19"/><g><rect x="600" y="190" width="190" height="330" rx="24.7" fill="#060c17"/><rect x="608" y="198" width="174" height="314" rx="19.0" fill="#fff"/><g transform="translate(608 198)"><rect x="0" y="0" width="174" height="298" rx="14" fill="#fff"/><circle cx="87" cy="120" r="46" fill="#fc393a"/><rect x="79" y="100" width="16" height="34" rx="8" fill="#fff"/><path d="M69 132a18 18 0 0 0 36 0" fill="none" stroke="#fff" stroke-width="6" stroke-linecap="round"/><rect x="30" y="196" width="114" height="12" rx="6" fill="#e8eaee"/><rect x="46" y="222" width="82" height="12" rx="6" fill="#e8eaee"/><rect x="24" y="256" width="126" height="26" rx="13" fill="#fc393a" opacity=".14"/></g></g></svg>