<svg xmlns="http://www.w3.org/2000/svg" viewBox="0 0 900 640" width="900" height="640"><defs><linearGradient id="bg" x1="0" y1="0" x2="0.3" y2="1"><stop offset="0" stop-color="#fff4ef"/><stop offset="1" stop-color="#ffe7dd"/></linearGradient><radialGradient id="warm" cx="52%" cy="26%" r="62%"><stop offset="0" stop-color="#ffffff" stop-opacity=".85"/><stop offset="1" stop-color="#ffffff" stop-opacity="0"/></radialGradient></defs><rect width="900" height="640" fill="url(#bg)"/><rect width="900" height="640" fill="url(#warm)"/><rect x="0" y="500" width="900" height="140" fill="#e3d7cc"/><path d="M40 150h820l-40 60H80z" fill="#fc393a"/><rect x="80" y="210" width="740" height="26" fill="#8a5433"/><g><rect x="90" y="240" width="180" height="120" rx="6" fill="#b9784a"/><rect x="95" y="245" width="170" height="110" rx="4" fill="#7ab648"/><rect x="90" y="294.0" width="180" height="6" fill="#8a5433" opacity=".5"/></g><g><rect x="285" y="240" width="180" height="120" rx="6" fill="#b9784a"/><rect x="290" y="245" width="170" height="110" rx="4" fill="#ff7a3c"/><rect x="285" y="294.0" width="180" height="6" fill="#8a5433" opacity=".5"/></g><g><rect x="480" y="240" width="180" height="120" rx="6" fill="#b9784a"/><rect x="485" y="245" width="170" height="110" rx="4" fill="#e34b4b"/><rect x="480" y="294.0" width="180" height="6" fill="#8a5433" opacity=".5"/></g><g><rect x="675" y="240" width="150" height="120" rx="6" fill="#b9784a"/><rect x="680" y="245" width="140" height="110" rx="4" fill="#f5d76e"/><rect x="675" y="294.0" width="150" height="6" fill="#8a5433" opacity=".5"/></g><circle cx="120" cy="270" r="17" fill="#4c9a4a"/><circle cx="152" cy="270" r="17" fill="#4c9a4a"/><circle cx="184" cy="270" r="17" fill="#4c9a4a"/><circle cx="216" cy="270" r="17" fill="#4c9a4a"/><circle cx="248" cy="270" r="17" fill="#4c9a4a"/><circle cx="312" cy="270" r="17" fill="#ff9a4d"/><circle cx="344" cy="270" r="17" fill="#ff9a4d"/><circle cx="376" cy="270" r="17" fill="#ff9a4d"/><circle cx="408" cy="270" r="17" fill="#ff9a4d"/><circle cx="440" cy="270" r="17" fill="#ff9a4d"/><circle cx="508" cy="270" r="17" fill="#fc393a"/><circle cx="540" cy="270" r="17" fill="#fc393a"/><circle cx="572" cy="270" r="17" fill="#fc393a"/><circle cx="604" cy="270" r="17" fill="#fc393a"/><circle cx="636" cy="270" r="17" fill="#fc393a"/><rect x="80" y="360" width="740" height="140" fill="#b9784a"/><g><rect x="120" y="380" width="150" height="110" rx="6" fill="#b9784a"/><rect x="125" y="385" width="140" height="100" rx="4" fill="#8fd18f"/><rect x="120" y="429.5" width="150" height="6" fill="#8a5433" opacity=".5"/></g><g><rect x="300" y="380" width="150" height="110" rx="6" fill="#b9784a"/><rect x="305" y="385" width="140" height="100" rx="4" fill="#ffb347"/><rect x="300" y="429.5" width="150" height="6" fill="#8a5433" opacity=".5"/></g><g><rect x="480" y="380" width="150" height="110" rx="6" fill="#b9784a"/><rect x="485" y="385" width="140" height="100" rx="4" fill="#ef6a6a"/><rect x="480" y="429.5" width="150" height="6" fill="#8a5433" opacity=".5"/></g><g transform="translate(760 500) scale(0.5)"><path d="M-52 0c0-96 22-146 52-146s52 50 52 146z" fill="#060c17"/><path d="M-52 0c0-96 22-146 52-146v146z" fill="#000" opacity=".07"/><ellipse cx="0" cy="-176" rx="34" ry="40" fill="#c98f66"/><path d="M-34 -184c0-30 14-46 34-46s34 16 34 46c0-16-14-24-34-24s-34 8-34 24z" fill="#241a16"/><path d="M-58 -110c-10 34-12 62-8 84l16-4c-3-22-1-46 6-70z" fill="#060c17"/><path d="M58 -110c10 34 12 62 8 84l-16-4c3-22 1-46-6-70z" fill="#060c17"/></g></svg>